<svg id="Layer_1" data-name="Layer 1" xmlns="http://www.w3.org/2000/svg" viewBox="0 0 448.84 448.68"><defs><style>.cls-1{fill:#fff;}</style></defs><path class="cls-1" d="M260.68,418c-9.8-10.6-18.1-19.4-26-28.3-3.2-3.6-7-3.8-11.3-3.7-14.1.1-28.2.1-42.4,0-10.4-.1-10.4-.2-10.7-10.1-.5-17.1-.5-17.1-17.2-17-6.1,0-11.7,0-17.1,5-7,6.5-17.3,4.9-23.5-1.8a17.55,17.55,0,0,1-.4-23.8c6.1-7.1,16.4-9.3,23.4-2.7,9.6,8.9,20.3,4.4,30.6,5.4,2.4.2,3.8-1.6,4-3.9.2-2.9.2-5.8.2-8.7.1-15.5-1.6-14.3,13.8-14.3,27.8,0,55.6.1,83.5-.1,5.6,0,9.9.3,13.3,6.3,3.2,5.6,8.8,9.9,13.2,14.8,3.4,3.8,6.8,6.2,12.6,6.5,10.4.6,16.7,8.5,16.2,18.3a17.42,17.42,0,0,1-15.6,16.7c-9.7,1-18.7-4.8-19.7-14.8-1.3-13.9-12.9-19.4-20.3-28.4-2-2.4-5.5-1.4-8.3-1.4-20.3-.1-40.7.2-61-.2-7-.1-9.9,2.2-9.4,9.2a166.65,166.65,0,0,1,0,18.7c-.4,6.6,2.7,8.7,8.9,8.5,12-.3,24.1,0,36.1-.1,4.3,0,7.2,1,10.3,4.8,10,12.1,21.3,23.3,31.7,35.1,3.4,3.9,6.5,5.2,11.8,3.4a203.77,203.77,0,0,0,72.9-44.2c4.2-4,5.2-7.1.5-11.1-9.3-7.9-14.5-20.3-27-25-3.2-1.2-1.8-5.1-1.9-7.8-.1-21.6-.4-43.2.1-64.8.2-8-1.6-14.4-7.7-19.9a151,151,0,0,1-14.4-15.5c-3.3-3.8-6.3-5.2-10.1-.9-.5.6-1.3,1-1.8,1.7-13.2,16.6-30.7,20.6-50.9,18.3-8-.9-15.8-.8-23,6.1-6.2,5.9-16.6,3.2-22.3-3.4a17.36,17.36,0,0,1-.3-22.9c5.4-6.7,16.1-9.8,22.2-4,7.9,7.4,16.6,5.2,25.4,6.5,16.3,2.3,28.5-3.3,39.5-15.2,8.7-9.4,19-17.4,28.7-25.8,3.6-3.2,6-6.4,5.9-11.6q-.3-28,0-56.1c.1-6.5-2.3-8.9-8.8-8.4a188.71,188.71,0,0,1-19.9.1c-5.1-.2-7.7,1.5-7.5,7.1.3,8.7.3,17.4,0,26.2-.2,4.3,2.6,6.6,4.8,9.6,6.4,8.5,5.6,18.1-1.7,24.6a17.45,17.45,0,0,1-23.8-.1c-7.2-6.5-8.5-16.6-1.4-24.4,4.3-4.7,4.5-9.4,4.5-14.7,0-12,.4-24.1-.1-36.1-.3-7.4,1.5-10.4,9.5-10,11.6.7,23.3-.3,34.9.3,8,.5,10.4-2.6,9.6-10-.4-3.3.2-6.7-.1-10-.6-7.3,3.2-16.2-7.3-20.2-6.8-2.5-12.3-7.1-20.9-5.4-11.9,2.4-22.8-6-25.1-17.1a22.46,22.46,0,0,1,14.6-25.8c10.5-3.8,21.8.3,27.1,11.3,2.6,5.4,6.4,8,11.3,10.5,68,35,110.5,89.8,122.9,165.3,21.4,130.2-72.1,243.5-192.6,258.2a222.72,222.72,0,0,1-57.1,0c-5.9-.8-8-1.8-5.8-8.3,6.2-17.6,5.9-17.5,25-17.1,9.1.2,18.3.1,27.4-.4C248,420.44,253.28,419.24,260.68,418Zm80.7-287.2h0c0,17.9-.2,35.7.1,53.6.1,7.5.5,13-10.4,13.4s-12.5,8-5,16.3c3.1,3.4,5.9,7.1,9.4,10,11.5,9.3,16.9,20.8,14.6,35.8-.4,2.9-1.7,7.3,2.4,8.7,3.9,1.4,8.2,1.5,11.4-2.4a14.35,14.35,0,0,1,3.8-3.1,17.81,17.81,0,0,1,22.7,3.2,18.12,18.12,0,0,1-.2,23.9,17.21,17.21,0,0,1-22.6,3.1c-2.1-1.3-3.6-3.6-5.7-4.8-3.7-2.1-8-3.1-11.1.8-2.4,3-.8,28.2,2,31.4,7.2,8.1,14.6,15.9,21.9,23.8,2.2,2.4,4.2,2.4,6.1-.1,1.5-2,3.1-3.9,4.5-6,34.9-50.8,45.1-106.1,29.4-165.8a195.21,195.21,0,0,0-7.6-22.3c-2.4-6-8.8-8-16.5-6.3-6.3,1.4-4.1,6.4-4.2,10-.3,10.8-.2,21.6-.1,32.4,0,6.9-.4,13.4,5.4,19.6s3.8,16.7-2.4,22.5a17.88,17.88,0,0,1-23.8.5c-6.5-5.6-9.1-16-3.3-22.3,6.7-7.2,6-14.9,6.1-23.1.1-13.3,0-26.6,0-39.9,0-17.3,0-17.3,17.9-18.1a20.85,20.85,0,0,1,2.5,0c5.2.1,5.4-2.2,3-6a198.33,198.33,0,0,0-43.9-48.8c-1.2-1-3-2.2-4.3-2-2.7.5-1.8,3.3-1.8,5.1C341.38,92.64,341.38,111.74,341.38,130.84Z"/><path class="cls-1" d="M152.58,241.64c0,18.3-.3,36.5.1,54.8.1,6.6-2.3,8.6-8.6,8.5q-31.8-.45-63.5,0c-6.5.1-8.8-2.3-8.5-8.7.4-9.1-.2-18.3.2-27.4.2-6.2-1.7-9.2-8.4-8.9q-12.45.6-24.9,0c-7.3-.4-8.2,2.3-6.6,8.8,10.6,44.9,34.2,81.5,70.1,110.3,17.6,14.2,37.4,24.6,58.7,32,9.8,3.4,10,3.6,6.2,12.5-7.7,18.1-2.8,17.8-23.3,10-93-35.5-151.6-128.9-143.3-228,8.8-105.3,90.7-190.6,195-203.7a214.75,214.75,0,0,1,58.3.3c4.2.6,6.2,1.8,4,6.2a15.71,15.71,0,0,0-.9,2.3c-6.1,17.1-6.1,17-24,16.6-8.2-.2-18.4-3.4-24.1,1.7-5.9,5.3-1.5,15.7-2.2,23.8-.3,3.7.4,7.6-.1,11.2-2.4,14.9,2.7,26.4,14,36.1,4.8,4.1,8.8,7.6,15.8,8.1,8.1.5,13.6,7.2,14.7,14.8,1,7.2-1.8,13.1-7.7,17.2s-12.5,4.3-18.8.9c-5.5-3-9-8.1-8.9-14.1,0-6.3-3.5-9.9-7.2-13.8-7.1-7.5-11.5-8-19.1-1.7s-14.9,13.2-22.6,19.6c-3.6,3-4.3,5.7-.4,8.8.6.5,1.1,1.3,1.7,1.8,17.7,13.6,22.7,31.2,20.9,53.2-2,23.9-.5,48.1-.4,72.2,0,10.9.2,11.1,11.1,11.1,24.1.1,48.2,0,72.3.1a18.09,18.09,0,0,0,12.4-4.3c9-7.3,18.8-6.3,25.4,1.5,6.1,7.1,5.8,16.9-.7,23.8s-16.4,7.8-24.6.8c-4.5-3.8-8.8-3.8-13.8-3.8h-87.2c-14,0-13.2,1.1-13.2-13.8,0-34.1-.1-68.1.1-102.2,0-6-1-11-5.4-15.7-23.9-25.4-47.4-51.2-71-76.9-3.3-3.6-5.6-6.6-10.7-1.4-8.7,9-9.5,9.8-4.1,15.7,22.5,24.5,44.9,48.9,67.7,73.1,4,4.2,5.8,8.3,5.7,14.1C152.38,206.74,152.58,224.14,152.58,241.64Zm-17.7-4c0-7.5-.9-15.1.2-22.4,2.7-18.8-3.3-33.3-17.8-45.9-11.5-10-10.9-11.2-19.5,1.5-7.1,10.5-16.8,19.3-18.6,33.1-.7,5.8-6.3,9.5-12.6,10.6-10.3,1.9-19.6-4.3-21.3-14.2a17.81,17.81,0,0,1,15.1-20.7c4.3-.7,8.8.5,12-4.4,5.7-8.7,11.9-17,18.2-25.3,2.9-3.7,2.4-6.4-.7-9.7-6.6-6.9-12.9-14.1-19.4-21.1-7.7-8.2-7.8-8.3-13.5,1-21.5,34.5-31.1,72-29.7,112.6.3,8,3.3,9.6,10.4,9.4,13.7-.5,27.4-.2,41.1-.1,11,.1,11.1.1,11.2,10.6.1,8.3.4,16.6-.1,24.9-.4,6.7,1.4,9.9,8.8,9.4a227.71,227.71,0,0,1,27.4,0c7.4.4,9.1-2.7,8.9-9.4C134.58,264.24,134.88,250.94,134.88,237.64Zm53.7-173.3c0-11-.2-18.5.1-25.9.3-6.4-2-7.8-8.1-6.4-26.7,6.1-50.8,17.5-72.9,33.4-4.3,3.1-5.1,5.4-1,9.6,9.3,9.5,17.9,19.6,27.2,29.1,5.4,5.6,9.4,15.2,16.8,15.5,6.6.4,11.1-9.1,17.2-13.1C184.48,95.74,193.88,81.64,188.58,64.34Z"/></svg>